<?xml version="1.0" standalone="no"?>
<!DOCTYPE svg PUBLIC "-//W3C//DTD SVG 20010904//EN"
 "http://www.w3.org/TR/2001/REC-SVG-20010904/DTD/svg10.dtd">
<svg version="1.0" xmlns="http://www.w3.org/2000/svg"
 width="128.000000pt" height="128.000000pt" viewBox="0 0 128.000000 128.000000"
 preserveAspectRatio="xMidYMid meet">

<g transform="translate(0.000000,128.000000) scale(0.100000,-0.100000)"
 stroke="none">
<path d="M483 1205 c-194 -53 -357 -217 -408 -412 -19 -73 -19 -233 0 -306 51
-197 215 -361 412 -412 73 -19 233 -19 306 0 197 51 361 215 412 412 19 74 19
233 0 306 -51 197 -215 361 -412 412 -72 19 -240 19 -310 0z m342 -260 c16
-15 25 -36 25 -54 0 -30 -18 -53 -174 -218 l-39 -42 69 -76 c153 -168 163
-188 123 -239 -19 -25 -25 -26 -108 -26 l-88 0 -65 68 c-36 37 -100 104 -142
150 -107 116 -106 124 20 262 52 58 117 126 144 153 l49 47 81 0 c73 0 83 -3
105 -25z"/>
<path d="M520 794 c-69 -75 -129 -145 -134 -155 -10 -21 -1 -32 165 -207 l98
-103 78 3 c75 3 78 4 81 28 1 20 -22 51 -108 144 -60 65 -110 122 -110 125 0
3 50 60 111 126 87 95 109 125 107 145 -3 24 -6 25 -83 28 l-80 2 -125 -136z
m180 73 c0 -7 -40 -57 -90 -111 -117 -127 -117 -126 -2 -252 48 -52 88 -102
90 -110 10 -44 -66 21 -181 154 -39 45 -47 84 -26 125 7 12 50 64 96 115 80
86 113 110 113 79z"/>
</g>
</svg>
